<?xml version="1.0" encoding="utf-8"?>
<!-- Generator: Adobe Illustrator 22.1.0, SVG Export Plug-In . SVG Version: 6.00 Build 0)  -->
<svg version="1.1" id="Layer_1" xmlns="http://www.w3.org/2000/svg" xmlns:xlink="http://www.w3.org/1999/xlink" x="0px" y="0px"
	 viewBox="0 0 1290 101" style="enable-background:new 0 0 1290 101;" xml:space="preserve">
<style type="text/css">
	.st0{fill:#223E3B;}
	.st1{fill:#34605B;}
	.st2{fill:#5CACA3;}
	.st3{fill:#C2E0DD;}
</style>
<g>
	<path class="st0" d="M1290,9C1157,19,1091.3,33.3,837,25C654.6,19.1,389,2,0,7v94h1290V9z"/>
	<path class="st1" d="M1290,27.4C979,52,898,60,599,31C432.1,14.8,135.6,18.2,0,15v86h1290V27.4z"/>
	<path class="st2" d="M1290,39.6C979,59.1,860,61,561,38.1C394.1,25.3,135.6,35.5,0,33v68h1290V39.6z"/>
	<path class="st3" d="M1290,52.9C1093.6,69,1002,64,639,53.1C471.9,48.1,135.6,41.8,0,40v61h1290V52.9z"/>
</g>
</svg>
